<svg xmlns="http://www.w3.org/2000/svg" width="32" height="32" viewBox="0 0 32 32" fill="none">
  <path d="M16 2C8.268 2 2 8.268 2 16C2 23.732 8.268 30 16 30C23.732 30 30 23.732 30 16C30 8.268 23.732 2 16 2Z" fill="#0088CC"/>
  <path d="M22.4393 10.2393C22.2793 10.1033 22.0693 10.0273 21.8493 10.0273C21.6893 10.0273 21.5293 10.0673 21.3893 10.1433L9.38929 16.1433C9.06929 16.3033 8.86929 16.6233 8.86929 16.9833C8.86929 17.3433 9.06929 17.6633 9.38929 17.8233L13.3893 19.8233V23.0033C13.3893 23.3633 13.5893 23.6833 13.9093 23.8433C14.0493 23.9193 14.2093 23.9593 14.3693 23.9593C14.5893 23.9593 14.7993 23.8833 14.9593 23.7473L17.9593 21.7473C18.2393 21.5473 18.3893 21.2673 18.3893 20.9593V19.8233L21.3893 17.8233C21.7093 17.6633 21.9093 17.3433 21.9093 16.9833V10.9833C21.9093 10.6633 21.7293 10.3833 21.4493 10.2233L22.4393 10.2393ZM16.3893 19.9593L15.3893 20.5993V19.3193L16.3893 18.6793V19.9593ZM20.3893 16.9833L14.3893 20.1433V18.8633L19.3893 16.1433L11.3893 11.9833L19.3893 7.82329V16.9833H20.3893Z" fill="white"/>
</svg>